<svg width="165" height="91" viewBox="0 0 165 91" fill="none" xmlns="http://www.w3.org/2000/svg">
<rect x="32" y="4" width="40" height="40" rx="5.31858" fill="#494D50"/>
<path fill-rule="evenodd" clip-rule="evenodd" d="M60.8333 18.9583V60.6666C65.0215 60.6666 68.4166 57.2715 68.4166 53.0833V15.1666C68.4166 10.9785 65.0215 7.58331 60.8333 7.58331H22.9166C18.7285 7.58331 15.3333 10.9785 15.3333 15.1666H57.0416C59.1357 15.1666 60.8333 16.8642 60.8333 18.9583ZM49.4583 72.0416V30.3333C49.4583 28.2392 47.7607 26.5416 45.6666 26.5416H3.95831C3.95831 22.3535 7.35349 18.9583 11.5416 18.9583H49.4583C53.6465 18.9583 57.0416 22.3535 57.0416 26.5416V64.4583C57.0416 68.6465 53.6465 72.0416 49.4583 72.0416ZM38.0833 30.3333H0.166646C-4.02151 30.3333 -7.41669 33.7285 -7.41669 37.9166V75.8333C-7.41669 80.0215 -4.02151 83.4166 0.166646 83.4166H38.0833C42.2715 83.4166 45.6666 80.0215 45.6666 75.8333V37.9166C45.6666 33.7285 42.2715 30.3333 38.0833 30.3333ZM0.166646 75.8333V37.9166H38.0833V75.8333H0.166646Z" fill="white"/>
<path d="M89.84 31.08C89.408 31.192 89.016 31.264 88.664 31.296C88.312 31.344 87.864 31.368 87.32 31.368C86.392 31.368 85.56 31.2 84.824 30.864C84.104 30.544 83.472 30.096 82.928 29.52C82.384 28.944 81.976 28.272 81.704 27.504C81.432 26.72 81.296 25.88 81.296 24.984C81.296 24.072 81.44 23.232 81.728 22.464C82.016 21.696 82.424 21.032 82.952 20.472C83.48 19.912 84.104 19.472 84.824 19.152C85.56 18.816 86.392 18.648 87.32 18.648C87.816 18.648 88.248 18.672 88.616 18.72C88.984 18.752 89.4 18.824 89.864 18.936C90.072 18.984 90.168 19.12 90.152 19.344L90.08 20.16C90.048 20.352 89.936 20.424 89.744 20.376C89.36 20.248 88.992 20.16 88.64 20.112C88.304 20.048 87.936 20.016 87.536 20.016C86.864 20.016 86.232 20.152 85.64 20.424C85.064 20.68 84.592 21.032 84.224 21.48C83.856 21.928 83.568 22.456 83.36 23.064C83.168 23.656 83.072 24.296 83.072 24.984C83.072 25.608 83.176 26.224 83.384 26.832C83.592 27.424 83.872 27.96 84.224 28.44C84.592 28.904 85.064 29.28 85.64 29.568C86.232 29.856 86.864 30 87.536 30C87.936 30 88.296 29.976 88.616 29.928C88.936 29.88 89.304 29.784 89.72 29.64C89.896 29.592 90.016 29.648 90.08 29.808L90.152 30.672C90.168 30.896 90.064 31.032 89.84 31.08ZM101.456 25.008C101.456 24.384 101.384 23.768 101.24 23.16C101.096 22.552 100.872 22 100.568 21.504C99.96 20.544 99.136 20.064 98.096 20.064C97.008 20.064 96.184 20.544 95.624 21.504C95.32 22 95.096 22.552 94.952 23.16C94.824 23.768 94.76 24.384 94.76 25.008C94.76 25.696 94.824 26.344 94.952 26.952C95.08 27.56 95.304 28.08 95.624 28.512C96.328 29.488 97.152 29.976 98.096 29.976C99.2 29.976 100.024 29.488 100.568 28.512C100.888 28.08 101.112 27.56 101.24 26.952C101.384 26.344 101.456 25.696 101.456 25.008ZM103.112 25.008C103.112 25.888 103.008 26.72 102.8 27.504C102.608 28.272 102.304 28.92 101.888 29.448C101.408 30.072 100.856 30.552 100.232 30.888C99.608 31.24 98.896 31.416 98.096 31.416C97.296 31.416 96.584 31.24 95.96 30.888C95.336 30.552 94.784 30.072 94.304 29.448C93.92 28.872 93.624 28.208 93.416 27.456C93.224 26.704 93.128 25.888 93.128 25.008C93.128 23.2 93.52 21.72 94.304 20.568C95.216 19.272 96.48 18.624 98.096 18.624C98.912 18.624 99.624 18.784 100.232 19.104C100.856 19.408 101.408 19.896 101.888 20.568C102.704 21.736 103.112 23.216 103.112 25.008ZM113.432 30.768C113.384 30.944 113.256 31.032 113.048 31.032H111.632C111.44 31.032 111.312 30.944 111.248 30.768L110.192 22.896L110.024 21.48L109.856 22.896L108.824 30.744C108.776 30.936 108.632 31.032 108.392 31.032H107.072C106.96 31.032 106.864 31.016 106.784 30.984C106.72 30.952 106.672 30.872 106.64 30.744L104.816 19.344C104.784 19.264 104.792 19.192 104.84 19.128C104.888 19.048 104.96 19.008 105.056 19.008H106.016C106.208 19.008 106.352 19.12 106.448 19.344L107.552 27.552L107.768 29.208L107.984 27.48L108.896 20.184C108.976 19.88 109.16 19.728 109.448 19.728H110.576C110.88 19.728 111.072 19.88 111.152 20.184L112.088 27.48L112.304 29.208L112.544 27.552L113.624 19.344C113.656 19.248 113.712 19.168 113.792 19.104C113.872 19.04 113.96 19.008 114.056 19.008H115.016C115.112 19.008 115.184 19.048 115.232 19.128C115.28 19.192 115.288 19.264 115.256 19.344L113.432 30.768ZM123.656 29.544C123.88 29.544 123.992 29.656 123.992 29.88V30.696C123.992 30.92 123.88 31.032 123.656 31.032H118.256C118.032 31.032 117.92 30.92 117.92 30.696V29.88C117.92 29.656 118.032 29.544 118.256 29.544H119.672V20.496H117.824C117.6 20.496 117.488 20.384 117.488 20.16V19.344C117.488 19.12 117.6 19.008 117.824 19.008H120.728C120.952 19.008 121.064 19.12 121.064 19.344V21.696C122.04 19.68 123.448 18.672 125.288 18.672C126.232 18.672 127.08 18.856 127.832 19.224C127.992 19.288 128.08 19.368 128.096 19.464C128.112 19.56 128.096 19.664 128.048 19.776L127.76 20.64C127.712 20.752 127.648 20.808 127.568 20.808C127.504 20.792 127.416 20.752 127.304 20.688C126.6 20.352 125.848 20.184 125.048 20.184C123.736 20.248 122.696 20.96 121.928 22.32C121.496 23.152 121.28 24.24 121.28 25.584V29.544H123.656ZM138.44 29.544C138.664 29.544 138.776 29.656 138.776 29.88V30.696C138.776 30.92 138.664 31.032 138.44 31.032H130.784C130.56 31.032 130.448 30.92 130.448 30.696V29.88C130.448 29.656 130.56 29.544 130.784 29.544H133.856V20.496H131.048C130.824 20.496 130.712 20.384 130.712 20.16V19.344C130.712 19.12 130.824 19.008 131.048 19.008H135.248C135.472 19.008 135.584 19.12 135.584 19.344V29.544H138.44ZM133.112 15.12C133.112 14.752 133.24 14.44 133.496 14.184C133.768 13.912 134.088 13.776 134.456 13.776C134.824 13.776 135.136 13.912 135.392 14.184C135.664 14.44 135.8 14.752 135.8 15.12C135.8 15.488 135.664 15.808 135.392 16.08C135.136 16.336 134.824 16.464 134.456 16.464C134.088 16.464 133.768 16.336 133.496 16.08C133.24 15.808 133.112 15.488 133.112 15.12ZM150.848 31.008C150.176 31.28 149.392 31.416 148.496 31.416C147.04 31.416 146.104 30.992 145.688 30.144C145.416 29.568 145.28 28.552 145.28 27.096V20.952H142.16C141.936 20.952 141.824 20.84 141.824 20.616V19.896C141.824 19.672 141.936 19.56 142.16 19.56H145.28V16.176C145.28 15.936 145.384 15.816 145.592 15.816H146.6C146.808 15.816 146.912 15.936 146.912 16.176V19.56H150.776C151 19.56 151.112 19.672 151.112 19.896V20.616C151.112 20.84 151 20.952 150.776 20.952H146.912V28.176C146.912 29.376 147.568 29.976 148.88 29.976C149.536 29.976 150.16 29.84 150.752 29.568C150.832 29.536 150.904 29.536 150.968 29.568C151.048 29.6 151.088 29.664 151.088 29.76L151.136 30.528C151.168 30.752 151.072 30.912 150.848 31.008ZM161.936 24.24C161.936 23.744 161.872 23.24 161.744 22.728C161.632 22.216 161.456 21.768 161.216 21.384C160.656 20.456 159.856 19.992 158.816 19.992C157.776 19.992 156.96 20.464 156.368 21.408C156.096 21.872 155.888 22.352 155.744 22.848C155.6 23.344 155.52 23.808 155.504 24.24H161.936ZM155.48 25.608C155.464 26.12 155.552 26.68 155.744 27.288C155.952 27.88 156.232 28.368 156.584 28.752C156.936 29.12 157.336 29.416 157.784 29.64C158.232 29.864 158.776 29.976 159.416 29.976C159.976 29.976 160.496 29.92 160.976 29.808C161.456 29.696 161.936 29.512 162.416 29.256C162.608 29.176 162.712 29.232 162.728 29.424V30.528C162.728 30.656 162.64 30.76 162.464 30.84C161.968 31.032 161.48 31.176 161 31.272C160.536 31.368 159.968 31.416 159.296 31.416C157.584 31.416 156.224 30.848 155.216 29.712C154.208 28.56 153.704 27.016 153.704 25.08C153.704 23.32 154.2 21.784 155.192 20.472C156.232 19.24 157.448 18.624 158.84 18.624C159.704 18.624 160.416 18.776 160.976 19.08C161.552 19.384 162.064 19.848 162.512 20.472C163.312 21.544 163.712 23 163.712 24.84C163.712 25.032 163.704 25.184 163.688 25.296C163.688 25.392 163.664 25.464 163.616 25.512C163.568 25.56 163.48 25.592 163.352 25.608C163.24 25.608 163.072 25.608 162.848 25.608H155.48Z" fill="#343434"/>
</svg>
