<svg width="80" height="91" viewBox="0 0 80 91" fill="none" xmlns="http://www.w3.org/2000/svg">
<rect x="32" y="4" width="40" height="40" rx="5.31858" fill="#494D50"/>
<path fill-rule="evenodd" clip-rule="evenodd" d="M60.8333 18.9583V60.6666C65.0215 60.6666 68.4166 57.2715 68.4166 53.0833V15.1666C68.4166 10.9785 65.0215 7.58331 60.8333 7.58331H22.9166C18.7285 7.58331 15.3333 10.9785 15.3333 15.1666H57.0416C59.1357 15.1666 60.8333 16.8642 60.8333 18.9583ZM49.4583 72.0416V30.3333C49.4583 28.2392 47.7607 26.5416 45.6666 26.5416H3.95831C3.95831 22.3535 7.35349 18.9583 11.5416 18.9583H49.4583C53.6465 18.9583 57.0416 22.3535 57.0416 26.5416V64.4583C57.0416 68.6465 53.6465 72.0416 49.4583 72.0416ZM38.0833 30.3333H0.166646C-4.02151 30.3333 -7.41669 33.7285 -7.41669 37.9166V75.8333C-7.41669 80.0215 -4.02151 83.4166 0.166646 83.4166H38.0833C42.2715 83.4166 45.6666 80.0215 45.6666 75.8333V37.9166C45.6666 33.7285 42.2715 30.3333 38.0833 30.3333ZM0.166646 75.8333V37.9166H38.0833V75.8333H0.166646Z" fill="white"/>
</svg>
